name C:\Users\u0101727\Documents\MyRepositories\upper-imu-dc\Results\main_mocap_tracking\Case_9\FLX01_angularVelocities.mot
datacolumns 4
datarows 100
range 1.010000 2.000000
endheader 
time	radius_imu_x	radius_imu_y	radius_imu_z	
          1.01000000	         -1.40600606	         -6.09629348	         -2.60330636	
          1.02000000	         -1.51708025	         -5.89711998	         -2.63685116	
          1.03000000	         -1.62205759	         -5.52596250	         -2.68793281	
          1.04000000	         -1.72349923	         -4.98939943	         -2.75089476	
          1.05000000	         -1.81522221	         -4.36502098	         -2.82462041	
          1.06000000	         -1.88890842	         -3.71575001	         -2.91297048	
          1.07000000	         -1.94021139	         -3.11631700	         -3.01030538	
          1.08000000	         -1.96820416	         -2.62587733	         -3.11295844	
          1.09000000	         -1.97548517	         -2.28578125	         -3.21420666	
          1.10000000	         -1.96695420	         -2.10919004	         -3.30749688	
          1.11000000	         -1.94753830	         -2.07835363	         -3.38762539	
          1.12000000	         -1.91955487	         -2.14242105	         -3.45359367	
          1.13000000	         -1.88695460	         -2.24361256	         -3.50338487	
          1.14000000	         -1.85546950	         -2.32998662	         -3.53375286	
          1.15000000	         -1.82808226	         -2.35907275	         -3.54343664	
          1.16000000	         -1.80496027	         -2.31096361	         -3.53184441	
          1.17000000	         -1.78432275	         -2.19094773	         -3.49796824	
          1.18000000	         -1.76326102	         -2.02240542	         -3.44060468	
          1.19000000	         -1.73800130	         -1.84269980	         -3.35832558	
          1.20000000	         -1.70635583	         -1.68996692	         -3.24888004	
          1.21000000	         -1.66829395	         -1.58833635	         -3.11096148	
          1.22000000	         -1.62477015	         -1.54127139	         -2.94116518	
          1.23000000	         -1.58775183	         -1.53127929	         -2.74206143	
          1.24000000	         -1.54440504	         -1.52217189	         -2.51463136	
          1.25000000	         -1.50159573	         -1.48173354	         -2.26404119	
          1.26000000	         -1.45580918	         -1.39152103	         -1.99352450	
          1.27000000	         -1.40133556	         -1.26014852	         -1.70384166	
          1.28000000	         -1.33972546	         -1.10749489	         -1.39682450	
          1.29000000	         -1.29322026	         -0.91636209	         -1.08252515	
          1.30000000	         -1.26409122	         -0.65967699	         -0.78489820	
          1.31000000	         -1.23019926	         -0.39174247	         -0.50769001	
          1.32000000	         -1.18614555	         -0.12182005	         -0.26000465	
          1.33000000	         -1.15235397	          0.21547241	         -0.06476841	
          1.34000000	         -1.17212215	          0.62650367	          0.09402915	
          1.35000000	         -1.24824923	          1.06017712	          0.23389993	
          1.36000000	         -1.35472162	          1.45316684	          0.35370613	
          1.37000000	         -1.46619485	          1.77063795	          0.44721670	
          1.38000000	         -1.56570103	          1.97935292	          0.51610851	
          1.39000000	         -1.61910913	          2.07740288	          0.56158142	
          1.40000000	         -1.65809747	          2.06997864	          0.58437268	
          1.41000000	         -1.66663736	          1.99860848	          0.58956943	
          1.42000000	         -1.64882595	          1.90475584	          0.58231929	
          1.43000000	         -1.62231018	          1.83405969	          0.56171099	
          1.44000000	         -1.58467661	          1.80777717	          0.53171423	
          1.45000000	         -1.55070292	          1.82186986	          0.49353929	
          1.46000000	         -1.51710810	          1.85904203	          0.45022010	
          1.47000000	         -1.48578952	          1.89575727	          0.40314739	
          1.48000000	         -1.46176918	          1.89422326	          0.35388647	
          1.49000000	         -1.43240833	          1.83847976	          0.30567518	
          1.50000000	         -1.40485824	          1.72921771	          0.25724098	
          1.51000000	         -1.37320040	          1.57737453	          0.21110067	
          1.52000000	         -1.34108047	          1.39504342	          0.16568235	
          1.53000000	         -1.31111190	          1.20166644	          0.12159375	
          1.54000000	         -1.27895089	          1.00116878	          0.08710010	
          1.55000000	         -1.24148441	          0.80217556	          0.05171999	
          1.56000000	         -1.20665938	          0.61345479	          0.01601021	
          1.57000000	         -1.18092143	          0.44324434	         -0.01475699	
          1.58000000	         -1.15904893	          0.30591773	         -0.04292241	
          1.59000000	         -1.14134766	          0.20648461	         -0.06709712	
          1.60000000	         -1.12656919	          0.15001969	         -0.08870823	
          1.61000000	         -1.11558242	          0.13253485	         -0.10768630	
          1.62000000	         -1.10751743	          0.14391530	         -0.12399895	
          1.63000000	         -1.10096431	          0.16711630	         -0.13741255	
          1.64000000	         -1.09439123	          0.18126523	         -0.14735784	
          1.65000000	         -1.08635080	          0.17170486	         -0.15454392	
          1.66000000	         -1.07714767	          0.13693201	         -0.15879869	
          1.67000000	         -1.06827168	          0.09127388	         -0.16059889	
          1.68000000	         -1.06123940	          0.05826037	         -0.16222286	
          1.69000000	         -1.05757257	          0.05753291	         -0.16552497	
          1.70000000	         -1.05795674	          0.09518066	         -0.17185829	
          1.71000000	         -1.06206852	          0.16270293	         -0.18183321	
          1.72000000	         -1.06893328	          0.24548616	         -0.19556778	
          1.73000000	         -1.07750585	          0.33341890	         -0.21304458	
          1.74000000	         -1.08704622	          0.42769909	         -0.23464858	
          1.75000000	         -1.09707787	          0.53901372	         -0.26080993	
          1.76000000	         -1.10743430	          0.67814856	         -0.29179647	
          1.77000000	         -1.11731706	          0.84610517	         -0.32781519	
          1.78000000	         -1.12580263	          1.02900851	         -0.36849329	
          1.79000000	         -1.13138598	          1.20298122	         -0.41266029	
          1.80000000	         -1.13284669	          1.34331185	         -0.45917193	
          1.81000000	         -1.12944627	          1.43237306	         -0.50654863	
          1.82000000	         -1.12096941	          1.46331013	         -0.55354849	
          1.83000000	         -1.10763560	          1.43779068	         -0.59930691	
          1.84000000	         -1.09003307	          1.36173115	         -0.64294854	
          1.85000000	         -1.06905431	          1.24402139	         -0.68364010	
          1.86000000	         -1.04583960	          1.09765305	         -0.72080382	
          1.87000000	         -1.02169675	          0.93954526	         -0.75422902	
          1.88000000	         -0.99788609	          0.78692913	         -0.78392877	
          1.89000000	         -0.97528869	          0.65254125	         -0.81000172	
          1.90000000	         -0.95431226	          0.54108477	         -0.83247446	
          1.91000000	         -0.93491355	          0.45040426	         -0.85139774	
          1.92000000	         -0.91678893	          0.37464120	         -0.86665834	
          1.93000000	         -0.89964201	          0.30691793	         -0.87835748	
          1.94000000	         -0.88324414	          0.23813342	         -0.88605718	
          1.95000000	         -0.86752652	          0.16144288	         -0.89012779	
          1.96000000	         -0.85304294	          0.07308641	         -0.88984232	
          1.97000000	         -0.84062824	         -0.01493153	         -0.88704094	
          1.98000000	         -0.83182418	         -0.08683911	         -0.88016586	
          1.99000000	         -0.82312326	         -0.10495946	         -0.87254245	
          2.00000000	         -0.83422724	         -0.07202629	         -0.86860247	
